<mxfile host="Electron" modified="2024-03-11T06:21:00.976Z" agent="Mozilla/5.0 (Windows NT 10.0; Win64; x64) AppleWebKit/537.36 (KHTML, like Gecko) draw.io/24.0.4 Chrome/120.0.6099.109 Electron/28.1.0 Safari/537.36" etag="9CYc_Ff1Vi5HCFYyloY7" version="24.0.4" type="device">
  <diagram name="1 oldal" id="OLUDZ94DIq2NRcqA28R9">
    <mxGraphModel dx="1434" dy="854" grid="1" gridSize="10" guides="1" tooltips="1" connect="1" arrows="1" fold="1" page="1" pageScale="1" pageWidth="827" pageHeight="1169" math="0" shadow="0">
      <root>
        <mxCell id="0" />
        <mxCell id="1" parent="0" />
        <mxCell id="2T9p_9Que8aAD-exLZS4-1" value="" style="ellipse;html=1;shape=endState;fillColor=#000000;strokeColor=#ff0000;" parent="1" vertex="1">
          <mxGeometry x="800" y="375" width="30" height="30" as="geometry" />
        </mxCell>
        <mxCell id="2T9p_9Que8aAD-exLZS4-14" style="edgeStyle=orthogonalEdgeStyle;rounded=0;orthogonalLoop=1;jettySize=auto;html=1;entryX=0;entryY=0.5;entryDx=0;entryDy=0;strokeColor=#F00C0C;exitX=0.887;exitY=0.496;exitDx=0;exitDy=0;exitPerimeter=0;" parent="1" source="2T9p_9Que8aAD-exLZS4-2" target="2T9p_9Que8aAD-exLZS4-6" edge="1">
          <mxGeometry relative="1" as="geometry" />
        </mxCell>
        <mxCell id="2T9p_9Que8aAD-exLZS4-24" value="action()" style="edgeLabel;html=1;align=center;verticalAlign=middle;resizable=0;points=[];" parent="2T9p_9Que8aAD-exLZS4-14" vertex="1" connectable="0">
          <mxGeometry x="-0.0675" y="1" relative="1" as="geometry">
            <mxPoint x="2" y="-9" as="offset" />
          </mxGeometry>
        </mxCell>
        <mxCell id="2T9p_9Que8aAD-exLZS4-2" value="" style="ellipse;html=1;shape=startState;fillColor=#000000;strokeColor=#ff0000;" parent="1" vertex="1">
          <mxGeometry x="120" y="375" width="30" height="30" as="geometry" />
        </mxCell>
        <mxCell id="2T9p_9Que8aAD-exLZS4-19" style="edgeStyle=orthogonalEdgeStyle;rounded=1;orthogonalLoop=1;jettySize=auto;html=1;exitX=1;exitY=0.5;exitDx=0;exitDy=0;entryX=0.5;entryY=0;entryDx=0;entryDy=0;strokeColor=#F00C0C;curved=0;" parent="1" source="2T9p_9Que8aAD-exLZS4-4" target="2T9p_9Que8aAD-exLZS4-1" edge="1">
          <mxGeometry relative="1" as="geometry" />
        </mxCell>
        <mxCell id="2T9p_9Que8aAD-exLZS4-35" value="useItem(&lt;i&gt;Item&lt;/i&gt;)" style="edgeLabel;html=1;align=center;verticalAlign=middle;resizable=0;points=[];" parent="2T9p_9Que8aAD-exLZS4-19" vertex="1" connectable="0">
          <mxGeometry x="-0.8649" y="2" relative="1" as="geometry">
            <mxPoint x="16" y="-7" as="offset" />
          </mxGeometry>
        </mxCell>
        <mxCell id="2T9p_9Que8aAD-exLZS4-4" value="UseItem" style="rounded=1;whiteSpace=wrap;html=1;arcSize=40;fontColor=#000000;fillColor=#ffffc0;strokeColor=#ff0000;" parent="1" vertex="1">
          <mxGeometry x="390" y="310" width="120" height="40" as="geometry" />
        </mxCell>
        <mxCell id="2T9p_9Que8aAD-exLZS4-15" style="edgeStyle=orthogonalEdgeStyle;rounded=1;orthogonalLoop=1;jettySize=auto;html=1;exitX=0.5;exitY=0;exitDx=0;exitDy=0;entryX=0;entryY=0.5;entryDx=0;entryDy=0;strokeColor=#F00C0C;curved=0;" parent="1" source="2T9p_9Que8aAD-exLZS4-6" target="2T9p_9Que8aAD-exLZS4-4" edge="1">
          <mxGeometry relative="1" as="geometry" />
        </mxCell>
        <mxCell id="2T9p_9Que8aAD-exLZS4-25" value="&lt;i&gt;[ItemChoice]&lt;/i&gt;" style="edgeLabel;html=1;align=center;verticalAlign=middle;resizable=0;points=[];" parent="2T9p_9Que8aAD-exLZS4-15" vertex="1" connectable="0">
          <mxGeometry x="0.2386" y="1" relative="1" as="geometry">
            <mxPoint y="-9" as="offset" />
          </mxGeometry>
        </mxCell>
        <mxCell id="2T9p_9Que8aAD-exLZS4-16" style="edgeStyle=orthogonalEdgeStyle;rounded=0;orthogonalLoop=1;jettySize=auto;html=1;exitX=1;exitY=0.5;exitDx=0;exitDy=0;entryX=0;entryY=0.5;entryDx=0;entryDy=0;strokeColor=#F00C0C;" parent="1" source="2T9p_9Que8aAD-exLZS4-6" target="2T9p_9Que8aAD-exLZS4-11" edge="1">
          <mxGeometry relative="1" as="geometry" />
        </mxCell>
        <mxCell id="2T9p_9Que8aAD-exLZS4-26" value="&lt;i&gt;[MovementChoivce]&lt;/i&gt;" style="edgeLabel;html=1;align=center;verticalAlign=middle;resizable=0;points=[];" parent="2T9p_9Que8aAD-exLZS4-16" vertex="1" connectable="0">
          <mxGeometry x="-0.2211" y="2" relative="1" as="geometry">
            <mxPoint x="7" y="-9" as="offset" />
          </mxGeometry>
        </mxCell>
        <mxCell id="2T9p_9Que8aAD-exLZS4-17" style="edgeStyle=orthogonalEdgeStyle;rounded=1;orthogonalLoop=1;jettySize=auto;html=1;exitX=0.5;exitY=1;exitDx=0;exitDy=0;entryX=0;entryY=0.5;entryDx=0;entryDy=0;strokeColor=#F00C0C;curved=0;" parent="1" source="2T9p_9Que8aAD-exLZS4-6" target="2T9p_9Que8aAD-exLZS4-12" edge="1">
          <mxGeometry relative="1" as="geometry" />
        </mxCell>
        <mxCell id="2T9p_9Que8aAD-exLZS4-28" value="&lt;i&gt;[PickUpChoice]&lt;/i&gt;" style="edgeLabel;html=1;align=center;verticalAlign=middle;resizable=0;points=[];" parent="2T9p_9Que8aAD-exLZS4-17" vertex="1" connectable="0">
          <mxGeometry x="-0.0147" y="1" relative="1" as="geometry">
            <mxPoint x="55" y="-9" as="offset" />
          </mxGeometry>
        </mxCell>
        <mxCell id="2T9p_9Que8aAD-exLZS4-30" style="edgeStyle=orthogonalEdgeStyle;rounded=1;orthogonalLoop=1;jettySize=auto;html=1;exitX=1;exitY=1;exitDx=0;exitDy=0;entryX=0;entryY=0.5;entryDx=0;entryDy=0;strokeColor=#F01A1A;curved=0;" parent="1" source="2T9p_9Que8aAD-exLZS4-6" target="2T9p_9Que8aAD-exLZS4-29" edge="1">
          <mxGeometry relative="1" as="geometry">
            <Array as="points">
              <mxPoint x="267" y="450" />
            </Array>
          </mxGeometry>
        </mxCell>
        <mxCell id="2T9p_9Que8aAD-exLZS4-32" value="&lt;i&gt;[DropChoice]&lt;/i&gt;" style="edgeLabel;html=1;align=center;verticalAlign=middle;resizable=0;points=[];" parent="2T9p_9Que8aAD-exLZS4-30" vertex="1" connectable="0">
          <mxGeometry x="0.0459" y="1" relative="1" as="geometry">
            <mxPoint x="18" y="-11" as="offset" />
          </mxGeometry>
        </mxCell>
        <mxCell id="2T9p_9Que8aAD-exLZS4-6" value="" style="rhombus;whiteSpace=wrap;html=1;fontColor=#000000;fillColor=#ffffc0;strokeColor=#ff0000;" parent="1" vertex="1">
          <mxGeometry x="230" y="370" width="50" height="40" as="geometry" />
        </mxCell>
        <mxCell id="2T9p_9Que8aAD-exLZS4-18" style="edgeStyle=orthogonalEdgeStyle;rounded=0;orthogonalLoop=1;jettySize=auto;html=1;exitX=1;exitY=0.5;exitDx=0;exitDy=0;entryX=0;entryY=0.5;entryDx=0;entryDy=0;strokeColor=#F00C0C;" parent="1" source="2T9p_9Que8aAD-exLZS4-11" target="2T9p_9Que8aAD-exLZS4-1" edge="1">
          <mxGeometry relative="1" as="geometry" />
        </mxCell>
        <mxCell id="2T9p_9Que8aAD-exLZS4-34" value="move(&lt;i&gt;Room, Room&lt;/i&gt;)" style="edgeLabel;html=1;align=center;verticalAlign=middle;resizable=0;points=[];" parent="2T9p_9Que8aAD-exLZS4-18" vertex="1" connectable="0">
          <mxGeometry x="-0.8406" y="2" relative="1" as="geometry">
            <mxPoint x="31" y="-7" as="offset" />
          </mxGeometry>
        </mxCell>
        <mxCell id="2T9p_9Que8aAD-exLZS4-11" value="UseMove" style="rounded=1;whiteSpace=wrap;html=1;arcSize=40;fontColor=#000000;fillColor=#ffffc0;strokeColor=#ff0000;" parent="1" vertex="1">
          <mxGeometry x="390" y="370" width="120" height="40" as="geometry" />
        </mxCell>
        <mxCell id="2T9p_9Que8aAD-exLZS4-20" style="edgeStyle=orthogonalEdgeStyle;rounded=0;orthogonalLoop=1;jettySize=auto;html=1;exitX=1;exitY=0.5;exitDx=0;exitDy=0;entryX=0;entryY=0.5;entryDx=0;entryDy=0;strokeColor=#F00C0C;" parent="1" source="2T9p_9Que8aAD-exLZS4-12" target="2T9p_9Que8aAD-exLZS4-13" edge="1">
          <mxGeometry relative="1" as="geometry" />
        </mxCell>
        <mxCell id="2T9p_9Que8aAD-exLZS4-36" value="pickUpItem(&lt;i&gt;Item&lt;/i&gt;)" style="edgeLabel;html=1;align=center;verticalAlign=middle;resizable=0;points=[];" parent="2T9p_9Que8aAD-exLZS4-20" vertex="1" connectable="0">
          <mxGeometry x="-0.7279" y="2" relative="1" as="geometry">
            <mxPoint x="28" y="-7" as="offset" />
          </mxGeometry>
        </mxCell>
        <mxCell id="2T9p_9Que8aAD-exLZS4-12" value="PickUpItem" style="rounded=1;whiteSpace=wrap;html=1;arcSize=40;fontColor=#000000;fillColor=#ffffc0;strokeColor=#ff0000;" parent="1" vertex="1">
          <mxGeometry x="390" y="490" width="120" height="40" as="geometry" />
        </mxCell>
        <mxCell id="2T9p_9Que8aAD-exLZS4-21" style="edgeStyle=orthogonalEdgeStyle;rounded=1;orthogonalLoop=1;jettySize=auto;html=1;exitX=1;exitY=0.5;exitDx=0;exitDy=0;entryX=0.5;entryY=1;entryDx=0;entryDy=0;strokeColor=#F00C0C;curved=0;" parent="1" source="2T9p_9Que8aAD-exLZS4-13" target="2T9p_9Que8aAD-exLZS4-1" edge="1">
          <mxGeometry relative="1" as="geometry" />
        </mxCell>
        <mxCell id="2T9p_9Que8aAD-exLZS4-37" value="&lt;i&gt;[IsRuler]&lt;/i&gt;" style="edgeLabel;html=1;align=center;verticalAlign=middle;resizable=0;points=[];" parent="2T9p_9Que8aAD-exLZS4-21" vertex="1" connectable="0">
          <mxGeometry x="-0.6718" y="1" relative="1" as="geometry">
            <mxPoint x="-10" y="-9" as="offset" />
          </mxGeometry>
        </mxCell>
        <mxCell id="2T9p_9Que8aAD-exLZS4-22" style="edgeStyle=orthogonalEdgeStyle;rounded=1;orthogonalLoop=1;jettySize=auto;html=1;exitX=0.5;exitY=1;exitDx=0;exitDy=0;entryX=1;entryY=1;entryDx=0;entryDy=0;strokeColor=#F00C0C;curved=0;" parent="1" source="2T9p_9Que8aAD-exLZS4-13" target="2T9p_9Que8aAD-exLZS4-1" edge="1">
          <mxGeometry relative="1" as="geometry">
            <Array as="points">
              <mxPoint x="685" y="540" />
              <mxPoint x="826" y="540" />
            </Array>
          </mxGeometry>
        </mxCell>
        <mxCell id="2T9p_9Que8aAD-exLZS4-38" value="&lt;i&gt;[! IsRuler]&lt;/i&gt;" style="edgeLabel;html=1;align=center;verticalAlign=middle;resizable=0;points=[];" parent="2T9p_9Que8aAD-exLZS4-22" vertex="1" connectable="0">
          <mxGeometry x="-0.6962" y="-1" relative="1" as="geometry">
            <mxPoint x="18" y="-11" as="offset" />
          </mxGeometry>
        </mxCell>
        <mxCell id="2T9p_9Que8aAD-exLZS4-13" value="" style="rhombus;whiteSpace=wrap;html=1;fontColor=#000000;fillColor=#ffffc0;strokeColor=#ff0000;" parent="1" vertex="1">
          <mxGeometry x="660" y="490" width="50" height="40" as="geometry" />
        </mxCell>
        <mxCell id="2T9p_9Que8aAD-exLZS4-23" value="ChooseAndExecuteAction" style="shape=umlFrame;whiteSpace=wrap;html=1;pointerEvents=0;width=160;height=30;" parent="1" vertex="1">
          <mxGeometry x="110" y="270" width="740" height="290" as="geometry" />
        </mxCell>
        <mxCell id="2T9p_9Que8aAD-exLZS4-31" style="edgeStyle=orthogonalEdgeStyle;rounded=0;orthogonalLoop=1;jettySize=auto;html=1;exitX=1;exitY=0.5;exitDx=0;exitDy=0;entryX=0;entryY=1;entryDx=0;entryDy=0;strokeColor=#F01A1A;" parent="1" source="2T9p_9Que8aAD-exLZS4-29" target="2T9p_9Que8aAD-exLZS4-1" edge="1">
          <mxGeometry relative="1" as="geometry" />
        </mxCell>
        <mxCell id="2T9p_9Que8aAD-exLZS4-33" value="dropItem(&lt;i&gt;Item&lt;/i&gt;)" style="edgeLabel;html=1;align=center;verticalAlign=middle;resizable=0;points=[];" parent="2T9p_9Que8aAD-exLZS4-31" vertex="1" connectable="0">
          <mxGeometry x="-0.8593" y="-1" relative="1" as="geometry">
            <mxPoint x="18" y="-11" as="offset" />
          </mxGeometry>
        </mxCell>
        <mxCell id="2T9p_9Que8aAD-exLZS4-29" value="DropItem" style="rounded=1;whiteSpace=wrap;html=1;arcSize=40;fontColor=#000000;fillColor=#ffffc0;strokeColor=#ff0000;" parent="1" vertex="1">
          <mxGeometry x="390" y="430" width="120" height="40" as="geometry" />
        </mxCell>
      </root>
    </mxGraphModel>
  </diagram>
</mxfile>
